# xmcd
#
# Track frame offsets: 
#        150
#        13552
#        27458
#        41282
#        51700
#        64854
#        76057
#        88559
#        99170
#        109192
#        122645
#        133233
#        146289
#        158948
#        173640
#        187728
#        200869
#        213585
#        227410
#        241100
#        253851
#        265258
#        279681
#        292510
#        304136
#
# Disc length: 4265 seconds
#
# Revision: 0
# Processed by: cddbd v1.5.1PL0 Copyright (c) Steve Scherf et al.
# Submitted via: ExactAudioCopy v0.95a4
#
DISCID=5a10a719
DTITLE=Cliff Carlisle - Dang My Rowdy Soul
DYEAR=1900
DGENRE=Country
TTITLE0=Ash Can Blues
TTITLE1=Dang My Rowdy Soul
TTITLE2=Rooster Blues
TTITLE3=Nevada Johnny
TTITLE4=Goin' Down The Road Feelin' Bad
TTITLE5=Shot The Innocent Man
TTITLE6=Ring-Tail Tom
TTITLE7=Hobo's Fate
TTITLE8=Waiting For A Ride
TTITLE9=Seven Years With The Wrong Woman
TTITLE10=Goodbye Old Pal
TTITLE11=Gamblin' Dan
TTITLE12=Cowboy Johnny's Last Ride
TTITLE13=Sugar Cane Mama
TTITLE14=Mouse's Ear Blues
TTITLE15=Onion Eating Mama
TTITLE16=Tom Cat Blues
TTITLE17=Shanghai Rooster no. 2
TTITLE18=Lonesome For Caroline
TTITLE19=That Great Judgement Day
TTITLE20=Chicken Roost Blues
TTITLE21=A Mean Woman Don't Worry Me
TTITLE22=It Takes An Old Hen to Deliver The Goods
TTITLE23=Uncloudy Day
TTITLE24=Wrigglin' Mama
EXTD=
EXTT0=
EXTT1=
EXTT2=
EXTT3=
EXTT4=
EXTT5=
EXTT6=
EXTT7=
EXTT8=
EXTT9=
EXTT10=
EXTT11=
EXTT12=
EXTT13=
EXTT14=
EXTT15=
EXTT16=
EXTT17=
EXTT18=
EXTT19=
EXTT20=
EXTT21=
EXTT22=
EXTT23=
EXTT24=
PLAYORDER=
